<svg width="42" height="42" viewBox="0 0 42 42" fill="none" xmlns="http://www.w3.org/2000/svg">
<g id="edit-1-svgrepo-com 1">
<path id="Vector" fill-rule="evenodd" clip-rule="evenodd" d="M30.1071 18.893L33.2501 15.75C34.2043 14.7958 34.6814 14.3187 34.9364 13.804C35.4216 12.8248 35.4216 11.6751 34.9364 10.6959C34.6814 10.1812 34.2043 9.70414 33.2501 8.74995C32.296 7.79577 31.8187 7.31868 31.3041 7.06364C30.3249 6.5784 29.1752 6.5784 28.1961 7.06364C27.6814 7.31868 27.2043 7.79577 26.2501 8.74995L23.0675 11.9326C24.7542 14.8212 27.18 17.2284 30.1071 18.893ZM20.5221 14.4779L8.49876 26.5013C7.75491 27.2452 7.38298 27.6171 7.13844 28.074C6.89391 28.5309 6.79075 29.0466 6.58444 30.0783L5.50749 35.463C5.39108 36.0451 5.33287 36.3361 5.49844 36.5016C5.66401 36.6672 5.95503 36.6089 6.5371 36.4925L11.9218 35.4156C12.9534 35.2093 13.4691 35.1062 13.9261 34.8615C14.383 34.6171 14.7549 34.2452 15.4988 33.5013L27.5552 21.4448C24.7172 19.6675 22.3168 17.2834 20.5221 14.4779Z" fill="white"/>
</g>
</svg>
