<svg width="16" height="16" viewBox="0 0 16 16" fill="none" xmlns="http://www.w3.org/2000/svg">
<g clip-path="url(#clip0_48_29)">
<path d="M8.00008 16.1481C12.5002 16.1481 16.1482 12.5001 16.1482 7.99995C16.1482 3.49986 12.5002 -0.148193 8.00008 -0.148193C3.49998 -0.148193 -0.148071 3.49986 -0.148071 7.99995C-0.148071 12.5001 3.49998 16.1481 8.00008 16.1481Z" fill="#181717"/>
<path d="M0.998047 12.1698C1.98993 13.8316 3.55674 15.1104 5.42401 15.732C5.8317 15.8065 5.98024 15.5549 5.98024 15.3388C5.98024 15.2494 5.97873 15.0913 5.97674 14.8798C5.97441 14.6347 5.9714 14.3181 5.96924 13.9532C3.70279 14.4455 3.22462 12.8608 3.22462 12.8608C2.85396 11.9199 2.31973 11.6693 2.31973 11.6693C1.57991 11.1636 2.37574 11.1736 2.37574 11.1736C3.19357 11.2316 3.62375 12.0134 3.62375 12.0134C4.35057 13.2585 5.53107 12.8988 5.99527 12.6907C6.0693 12.164 6.27936 11.8049 6.51248 11.6013C4.70322 11.3957 2.80091 10.6964 2.80091 7.57409C2.80091 6.68472 3.11857 5.95741 3.63977 5.38769C3.55572 5.18159 3.27611 4.35325 3.71929 3.23129C3.71929 3.23129 4.40357 3.01218 5.96024 4.06663C6.61001 3.88607 7.30729 3.7955 8.00008 3.79253C8.69186 3.7955 9.38918 3.88607 10.0399 4.06663C11.5956 3.01218 12.2784 3.23129 12.2784 3.23129C12.7231 4.35325 12.4434 5.18159 12.3594 5.38769C12.8816 5.95741 13.1973 6.68472 13.1973 7.57409C13.1973 10.7044 11.292 11.3932 9.47669 11.5947C9.76933 11.8464 10.03 12.3436 10.03 13.1039C10.03 13.8321 10.0255 14.4665 10.0225 14.8866C10.021 15.0947 10.0199 15.2503 10.0199 15.3388C10.0199 15.5569 10.1665 15.8105 10.5802 15.731C12.0677 15.2344 13.3643 14.3211 14.3312 13.1294C12.8373 14.9711 10.556 16.1482 7.99984 16.1482C5.02357 16.1482 2.42003 14.5524 0.998047 12.1698Z" fill="white"/>
</g>
<defs>
<clipPath id="clip0_48_29">
<rect width="16" height="16" fill="white"/>
</clipPath>
</defs>
</svg>
