<svg width="16" height="16" viewBox="0 0 16 16" fill="none" xmlns="http://www.w3.org/2000/svg">
<g clip-path="url(#clip0_48_17)">
<path fill-rule="evenodd" clip-rule="evenodd" d="M3.44246 7.99991C3.44246 7.49182 3.52685 7.00471 3.67746 6.54782L1.04119 4.53467C0.527392 5.57787 0.237915 6.75333 0.237915 7.99991C0.237915 9.24542 0.527036 10.4202 1.04012 11.4627L3.67497 9.4456C3.52578 8.99085 3.44246 8.50551 3.44246 7.99991Z" fill="#FBBC05"/>
<path fill-rule="evenodd" clip-rule="evenodd" d="M8.0712 3.37773C9.17499 3.37773 10.172 3.76885 10.9553 4.40885L13.2341 2.13329C11.8454 0.924401 10.0651 0.177734 8.0712 0.177734C4.97561 0.177734 2.31512 1.94805 1.04114 4.53471L3.67741 6.54787C4.28485 4.70396 6.01637 3.37773 8.0712 3.37773Z" fill="#EB4335"/>
<path fill-rule="evenodd" clip-rule="evenodd" d="M8.0712 12.6223C6.01637 12.6223 4.28485 11.2961 3.67741 9.45215L1.04114 11.4649C2.31512 14.052 4.97561 15.8223 8.0712 15.8223C9.98182 15.8223 11.8059 15.1439 13.175 13.8728L10.6726 11.9382C9.96651 12.383 9.07743 12.6223 8.0712 12.6223Z" fill="#34A853"/>
<path fill-rule="evenodd" clip-rule="evenodd" d="M15.5486 7.99986C15.5486 7.53764 15.4773 7.03986 15.3705 6.57764H8.07129V9.59986H12.2728C12.0627 10.6303 11.4909 11.4224 10.6727 11.938L13.1751 13.8726C14.6132 12.5378 15.5486 10.5495 15.5486 7.99986Z" fill="#4285F4"/>
</g>
<defs>
<clipPath id="clip0_48_17">
<rect width="16" height="16" fill="white"/>
</clipPath>
</defs>
</svg>
