<svg width="48" height="40" viewBox="0 0 48 40" fill="none" xmlns="http://www.w3.org/2000/svg">
<g id="SVGRepo_iconCarrier">
<g id="Group">
<path id="Vector" d="M44.0355 18.7327C44.0355 18.7327 43.5765 19.2952 42.6683 20.2035C41.76 21.1117 25.0605 37.8105 25.0605 37.8105C24.7673 38.1038 24.384 38.25 24 38.25C23.616 38.25 23.2327 38.1038 22.9395 37.8105C22.9395 37.8105 6.24 21.111 5.33175 20.2028C4.4235 19.2945 3.9645 18.732 3.9645 18.732C2.43375 16.9087 1.5 14.568 1.5 12C1.5 6.201 6.201 1.5 12 1.5C14.8995 1.5 17.5245 2.6745 19.4242 4.57575L19.431 4.569L22.9395 8.07675C23.5252 8.6625 24.4748 8.6625 25.0605 8.07675L28.569 4.569L28.5758 4.57575C30.4755 2.6745 33.1005 1.5 36 1.5C41.799 1.5 46.5 6.201 46.5 12C46.5 14.568 45.5662 16.9087 44.0355 18.7327Z" fill="#F76D57"/>
<path id="Vector_2" d="M44.0355 18.7327C44.0355 18.7327 43.5765 19.2952 42.6683 20.2035C41.76 21.1117 25.0605 37.8105 25.0605 37.8105C24.7673 38.1038 24.384 38.25 24 38.25C23.616 38.25 23.2327 38.1038 22.9395 37.8105C22.9395 37.8105 6.24 21.111 5.33175 20.2028C4.4235 19.2945 3.9645 18.732 3.9645 18.732C2.43375 16.9087 1.5 14.568 1.5 12C1.5 6.201 6.201 1.5 12 1.5C14.8995 1.5 17.5245 2.6745 19.4242 4.57575L19.431 4.569L22.9395 8.07675C23.5252 8.6625 24.4748 8.6625 25.0605 8.07675L28.569 4.569L28.5758 4.57575C30.4755 2.6745 33.1005 1.5 36 1.5C41.799 1.5 46.5 6.201 46.5 12C46.5 14.568 45.5662 16.9087 44.0355 18.7327Z" fill="#F76D57"/>
<g id="Group_2">
<path id="Vector_3" d="M36 0C32.6865 0 29.6865 1.34325 27.5153 3.51525L24.531 6.486C24.2378 6.77925 23.7638 6.77925 23.4705 6.486C23.4705 6.486 20.4923 3.5085 20.4862 3.51525C18.3135 1.34325 15.3135 0 12 0C5.37225 0 0 5.37225 0 12C0 14.5035 0.768 16.827 2.07975 18.75C2.07975 18.75 2.63025 19.623 3.28125 20.2732C3.93225 20.9235 21.879 38.871 21.879 38.871C22.4648 39.4567 23.2327 39.75 24 39.75C24.7673 39.75 25.5352 39.4567 26.121 38.871C26.121 38.871 44.0685 20.9235 44.7188 20.2732C45.369 19.623 45.9202 18.75 45.9202 18.75C47.232 16.827 48 14.5035 48 12C48 5.37225 42.6278 0 36 0ZM44.0355 18.7327C44.0355 18.7327 43.5765 19.2952 42.6683 20.2035C41.76 21.1117 25.0605 37.8105 25.0605 37.8105C24.7673 38.1038 24.384 38.25 24 38.25C23.616 38.25 23.2327 38.1038 22.9395 37.8105C22.9395 37.8105 6.24 21.111 5.33175 20.2028C4.4235 19.2945 3.9645 18.732 3.9645 18.732C2.43375 16.9088 1.5 14.568 1.5 12C1.5 6.201 6.201 1.5 12 1.5C14.8995 1.5 17.5245 2.6745 19.4242 4.57575L19.431 4.569L22.9395 8.07675C23.5252 8.6625 24.4748 8.6625 25.0605 8.07675L28.569 4.569L28.5758 4.57575C30.4755 2.6745 33.1005 1.5 36 1.5C41.799 1.5 46.5 6.201 46.5 12C46.5 14.568 45.5662 16.9087 44.0355 18.7327Z" fill="#394240"/>
<path id="Vector_4" d="M36 4.5C35.5853 4.5 35.25 4.83525 35.25 5.25C35.25 5.66475 35.5853 6 36 6C39.3135 6 42 8.6865 42 12C42 12.4148 42.3352 12.75 42.75 12.75C43.1648 12.75 43.5 12.4148 43.5 12C43.5 7.8585 40.1415 4.5 36 4.5Z" fill="#394240"/>
</g>
</g>
</g>
</svg>
