<svg width="32" height="32" viewBox="0 0 32 32" fill="none" xmlns="http://www.w3.org/2000/svg">
<g id="log-out-outlined-svgrepo-com 1">
<g id="SVGRepo_iconCarrier">
<g id="Fill">
<path id="Vector" d="M25 2H16V4H25C25.2652 4 25.5196 4.10536 25.7071 4.29289C25.8946 4.48043 26 4.73478 26 5V27C26 27.2652 25.8946 27.5196 25.7071 27.7071C25.5196 27.8946 25.2652 28 25 28H16V30H25C25.7956 30 26.5587 29.6839 27.1213 29.1213C27.6839 28.5587 28 27.7956 28 27V5C28 4.20435 27.6839 3.44129 27.1213 2.87868C26.5587 2.31607 25.7956 2 25 2Z" fill="#A09F9F"/>
<path id="Vector_2" d="M21.5802 17V15H7.00023L11.0002 11L9.58023 9.54999L4.58023 14.55C4.39427 14.7357 4.24675 14.9563 4.14611 15.1991C4.04546 15.4419 3.99365 15.7022 3.99365 15.965C3.99365 16.2278 4.04546 16.4881 4.14611 16.7309C4.24675 16.9737 4.39427 17.1942 4.58023 17.38L9.58023 22.38L11.0002 21L7.00023 17H21.5802Z" fill="#A09F9F"/>
</g>
</g>
</g>
</svg>
