<svg enable-background="new 0 0 512 512" viewBox="0 0 512 512" xmlns="http://www.w3.org/2000/svg"><path d="m378.553 355.648-333.436 145.085c-21.735 8.65-43.335-12.764-34.874-34.572l145.709-338.684" fill="#ffb636"/><path d="m10.243 466.161 11.58-26.916c.993-1.514 1.983-3.03 2.977-4.543 57.597-87.744 116.038-174.952 176.475-260.768l67.765 69.46c-51.13 35.102-217.15 206.669-251.925 252.177-7.57-6.963-11.249-18.128-6.872-29.41z" fill="#ffd469"/><path d="m304.382 204.434c61.854 61.854 95.685 128.308 75.564 148.43-20.121 20.121-86.575-13.71-148.43-75.564s-95.685-128.308-75.564-148.43 86.575 13.709 148.43 75.564z" fill="#a06c33"/><path d="m155.601 327.572c0 6.012-4.874 10.885-10.885 10.885s-10.885-4.873-10.885-10.885 4.873-10.885 10.885-10.885 10.885 4.873 10.885 10.885z" fill="#f7f9aa"/><path d="m501.986 213.16c0 8.628-6.994 15.622-15.622 15.622s-15.622-6.994-15.622-15.622 6.994-15.622 15.622-15.622 15.622 6.994 15.622 15.622zm-104.323 208.022c-8.628 0-15.622 6.994-15.622 15.622s6.994 15.622 15.622 15.622 15.622-6.994 15.622-15.622-6.995-15.622-15.622-15.622z" fill="#ffb636"/><path d="m355.949 79.523c-1.34 9.065-7.197 17.072-16.07 21.968-6.126 3.38-13.33 5.137-20.807 5.137-2.354 0-4.734-.174-7.117-.526-5.288-.782-10.581.016-14.52 2.189-1.766.974-4.8 3.105-5.293 6.438-.492 3.333 1.796 6.251 3.203 7.694 3.058 3.135 7.725 5.381 12.849 6.22.141.015.281.02.422.041 21.619 3.196 37.061 20.32 34.421 38.173-1.34 9.066-7.197 17.073-16.071 21.969-6.126 3.38-13.329 5.137-20.806 5.137-2.354 0-4.734-.174-7.117-.526-5.287-.783-10.582.015-14.521 2.189-1.766.974-4.8 3.105-5.293 6.438-.79 5.349 5.778 12.411 16.47 13.991 5.817.86 9.836 6.273 8.976 12.091-.782 5.29-5.328 9.092-10.52 9.092-.519 0-1.043-.038-1.571-.116-21.619-3.196-37.06-20.321-34.421-38.173 1.34-9.066 7.197-17.073 16.071-21.969 8.055-4.444 17.972-6.082 27.924-4.611 5.288.781 10.58-.016 14.52-2.189 1.766-.974 4.8-3.105 5.293-6.438.777-5.262-5.577-12.171-15.963-13.898-.17-.017-.341-.031-.512-.056-9.951-1.472-18.971-5.908-25.395-12.493-7.077-7.254-10.367-16.614-9.026-25.681 1.34-9.065 7.197-17.072 16.07-21.968 8.055-4.444 17.972-6.082 27.924-4.611 5.286.78 10.581-.016 14.52-2.189 1.766-.974 4.8-3.105 5.293-6.438.492-3.333-1.796-6.251-3.203-7.694-3.142-3.22-7.977-5.516-13.267-6.297-5.817-.86-9.836-6.273-8.976-12.091.859-5.818 6.274-9.832 12.091-8.977 9.951 1.472 18.971 5.908 25.395 12.493 7.078 7.255 10.368 16.615 9.027 25.681z" fill="#bea4ff"/><path d="m81.731 159.689c0 9.777-7.926 17.703-17.703 17.703s-17.703-7.926-17.703-17.703 7.926-17.703 17.703-17.703 17.703 7.925 17.703 17.703zm316.445-20.453c-11.296 0-20.452 9.157-20.452 20.452s9.157 20.452 20.452 20.452 20.452-9.157 20.452-20.452-9.156-20.452-20.452-20.452zm-182.647 256.663c-11.296 0-20.452 9.157-20.452 20.452s9.157 20.452 20.452 20.452c11.296 0 20.452-9.157 20.452-20.452s-9.156-20.452-20.452-20.452zm271.303-93.646c3.093-5.989.745-13.352-5.244-16.445-2.388-1.232-5.238-2.868-8.538-4.761-28.993-16.633-89.319-51.242-160.352 6.109-5.245 4.234-6.063 11.919-1.829 17.163 4.233 5.245 11.917 6.065 17.163 1.829 58.035-46.856 104.882-19.985 132.871-3.928 3.403 1.952 6.617 3.796 9.483 5.276 1.791.925 3.705 1.363 5.591 1.363 4.42 0 8.687-2.408 10.855-6.606z" fill="#ff6e83"/><path d="m434.834 62.776c0 6.012-4.874 10.885-10.885 10.885-6.012 0-10.885-4.873-10.885-10.885s4.873-10.885 10.885-10.885c6.012-.001 10.885 4.873 10.885 10.885zm-388.51-50.882c-6.012 0-10.885 4.873-10.885 10.885s4.873 10.885 10.885 10.885 10.886-4.873 10.886-10.885-4.874-10.885-10.886-10.885zm170.681 142.057c1.231-2.414 2.749-5.163 4.356-8.073 8.154-14.771 19.32-34.999 19.992-58.559.807-28.304-13.934-54.002-43.812-76.38-5.187-3.885-12.539-2.828-16.421 2.357-3.884 5.186-2.829 12.538 2.357 16.421 23.75 17.788 35.01 36.411 34.425 56.933-.51 17.872-9.697 34.516-17.08 47.889-1.701 3.083-3.309 5.994-4.713 8.747-2.945 5.771-.654 12.836 5.116 15.781 1.708.872 3.529 1.285 5.323 1.285 4.267 0 8.384-2.338 10.457-6.401z" fill="#59cafc"/></svg>