<svg width="32" height="32" viewBox="0 0 32 32" fill="none" xmlns="http://www.w3.org/2000/svg">
<g id="settings-svgrepo-com 1">
<g id="SVGRepo_iconCarrier">
<path id="Vector" d="M16 20C18.2091 20 20 18.2091 20 16C20 13.7909 18.2091 12 16 12C13.7909 12 12 13.7909 12 16C12 18.2091 13.7909 20 16 20Z" stroke="#A09F9F" stroke-width="1.5"/>
<path id="Vector_2" d="M4.88179 14.1856C5.51185 14.5815 5.91725 15.2559 5.91725 15.9999C5.91724 16.744 5.51184 17.4184 4.88179 17.8143C4.45304 18.0836 4.1768 18.2989 3.98027 18.5551C3.54972 19.1163 3.35971 19.8253 3.45203 20.5265C3.52125 21.0524 3.83188 21.5904 4.45313 22.6665C5.0744 23.7425 5.38503 24.2805 5.80584 24.6035C6.36693 25.034 7.07608 25.224 7.77728 25.1317C8.09732 25.0896 8.42187 24.958 8.86944 24.7215C9.52741 24.3737 10.3143 24.3599 10.9588 24.732C11.6032 25.1041 11.9845 25.7924 12.0123 26.536C12.0313 27.042 12.0796 27.3889 12.2031 27.6872C12.4738 28.3405 12.9929 28.8597 13.6463 29.1304C14.1364 29.3333 14.7576 29.3333 16.0002 29.3333C17.2427 29.3333 17.8639 29.3333 18.354 29.1304C19.0074 28.8597 19.5266 28.3405 19.7972 27.6872C19.9207 27.3889 19.9691 27.042 19.988 26.5361C20.0158 25.7924 20.3971 25.1041 21.0416 24.732C21.686 24.36 22.4728 24.3739 23.1307 24.7216C23.5784 24.9581 23.903 25.0897 24.223 25.1319C24.9242 25.2243 25.6334 25.0341 26.1944 24.6036C26.6152 24.2808 26.9259 23.7427 27.5472 22.6667C27.8238 22.1876 28.0388 21.8152 28.1983 21.5029M27.1184 17.8144C26.4884 17.4185 26.0831 16.7441 26.083 16.0001C26.083 15.256 26.4884 14.5815 27.1184 14.1856C27.5472 13.9163 27.8234 13.7009 28.0199 13.4448C28.4504 12.8837 28.6404 12.1745 28.5482 11.4733C28.479 10.9475 28.1683 10.4094 27.547 9.33339C26.9258 8.25734 26.6151 7.71932 26.1943 7.39642C25.6332 6.96587 24.924 6.77586 24.2228 6.86816C23.9028 6.91031 23.5783 7.04186 23.1307 7.27843C22.4727 7.62618 21.6859 7.64004 21.0415 7.26794C20.3971 6.89586 20.0158 6.20759 19.988 5.46403C19.9691 4.95802 19.9207 4.61112 19.7972 4.31283C19.5266 3.65943 19.0074 3.1403 18.354 2.86964C17.8639 2.66666 17.2427 2.66666 16.0002 2.66666C14.7576 2.66666 14.1364 2.66666 13.6463 2.86964C12.9929 3.1403 12.4738 3.65943 12.2031 4.31283C12.0796 4.6111 12.0313 4.95796 12.0123 5.46391C11.9845 6.20754 11.6032 6.89587 10.9587 7.26794C10.3143 7.64002 9.52747 7.62611 8.86956 7.27839C8.42193 7.0418 8.09736 6.91024 7.77729 6.8681C7.07609 6.77579 6.36695 6.9658 5.80585 7.39635C5.38504 7.71926 5.07441 8.25728 4.45315 9.33332C4.17657 9.81238 3.96156 10.1848 3.802 10.497" stroke="#A09F9F" stroke-width="1.5" stroke-linecap="round"/>
</g>
</g>
</svg>
